<?xml version="1.0" encoding="UTF-8" standalone="no"?>
<!DOCTYPE svg PUBLIC "-//W3C//DTD SVG 1.1//EN" "http://www.w3.org/Graphics/SVG/1.1/DTD/svg11.dtd">
<svg width="100%" height="100%" viewBox="0 0 1200 1200" version="1.1" xmlns="http://www.w3.org/2000/svg" xmlns:xlink="http://www.w3.org/1999/xlink" xml:space="preserve" xmlns:serif="http://www.serif.com/" style="fill-rule:evenodd;clip-rule:evenodd;stroke-linecap:round;stroke-linejoin:round;stroke-miterlimit:1.5;">
    <rect x="0" y="0" width="1200" height="1200" style="fill:none;"/>
    <g transform="matrix(1.02041,0,0,1.47059,120.408,-370.588)">
        <path d="M960,490C960,396.174 850.219,320 715,320L225,320C89.781,320 -20,396.174 -20,490L-20,830C-20,923.826 89.781,1000 225,1000L715,1000C850.219,1000 960,923.826 960,830L960,490Z" style="fill:rgb(0,139,139);"/>
    </g>
    <g transform="matrix(1,0,0,1,-238.011,-117.007)">
        <g transform="matrix(220,0,0,220,403.071,627.187)">
            <path d="M0.348,-0.269L0.279,-0.59L0.277,-0.59L0.208,-0.269L0.348,-0.269ZM0.367,-0.714L0.556,-0L0.406,-0L0.373,-0.151L0.183,-0.151L0.15,-0L0,-0L0.189,-0.714L0.367,-0.714Z" style="fill:white;fill-rule:nonzero;"/>
        </g>
        <g transform="matrix(220,0,0,220,525.391,627.187)">
            <path d="M0.301,-0.538L0.228,-0.153L0.226,-0.153L0.149,-0.538L0.005,-0.538L0.144,-0L0.304,-0L0.439,-0.538L0.301,-0.538Z" style="fill:white;fill-rule:nonzero;"/>
        </g>
        <g transform="matrix(220,0,0,220,623.071,627.187)">
            <path d="M0.305,-0.33L0.164,-0.33L0.164,-0.351C0.164,-0.364 0.165,-0.376 0.168,-0.389C0.17,-0.402 0.174,-0.413 0.179,-0.424C0.184,-0.434 0.192,-0.442 0.201,-0.449C0.21,-0.455 0.221,-0.458 0.235,-0.458C0.249,-0.458 0.261,-0.455 0.27,-0.45C0.279,-0.444 0.286,-0.436 0.291,-0.425C0.296,-0.413 0.299,-0.4 0.301,-0.385C0.303,-0.369 0.304,-0.351 0.305,-0.33ZM0.164,-0.248L0.437,-0.248L0.437,-0.279C0.437,-0.32 0.434,-0.358 0.429,-0.392C0.424,-0.425 0.414,-0.454 0.399,-0.478C0.384,-0.501 0.364,-0.52 0.339,-0.533C0.313,-0.546 0.28,-0.552 0.24,-0.552C0.193,-0.552 0.156,-0.544 0.128,-0.529C0.1,-0.514 0.079,-0.493 0.064,-0.467C0.049,-0.441 0.039,-0.411 0.034,-0.378C0.029,-0.345 0.026,-0.31 0.026,-0.274C0.026,-0.24 0.028,-0.206 0.031,-0.172C0.034,-0.138 0.042,-0.107 0.055,-0.08C0.068,-0.053 0.089,-0.031 0.117,-0.014C0.145,0.003 0.184,0.011 0.234,0.011C0.3,0.011 0.348,-0.005 0.379,-0.038C0.41,-0.071 0.426,-0.118 0.429,-0.181L0.305,-0.181C0.301,-0.147 0.294,-0.122 0.283,-0.105C0.272,-0.088 0.255,-0.08 0.232,-0.08C0.219,-0.08 0.209,-0.084 0.2,-0.091C0.191,-0.097 0.184,-0.107 0.179,-0.119C0.174,-0.13 0.17,-0.143 0.168,-0.159C0.165,-0.173 0.164,-0.189 0.164,-0.205L0.164,-0.248Z" style="fill:white;fill-rule:nonzero;"/>
        </g>
        <g transform="matrix(220,0,0,220,724.931,627.187)">
            <path d="M0.046,-0.538L0.046,-0L0.184,-0L0.184,-0.323C0.184,-0.341 0.187,-0.356 0.193,-0.369C0.199,-0.381 0.207,-0.391 0.217,-0.399C0.227,-0.406 0.238,-0.412 0.25,-0.415C0.262,-0.418 0.274,-0.42 0.286,-0.42C0.293,-0.42 0.301,-0.42 0.308,-0.42C0.315,-0.419 0.322,-0.419 0.329,-0.418L0.329,-0.55C0.325,-0.551 0.321,-0.551 0.317,-0.552C0.312,-0.552 0.308,-0.552 0.304,-0.552C0.275,-0.552 0.251,-0.544 0.231,-0.529C0.211,-0.513 0.194,-0.492 0.18,-0.466L0.178,-0.466L0.178,-0.538L0.046,-0.538Z" style="fill:white;fill-rule:nonzero;"/>
        </g>
        <g transform="matrix(220,0,0,220,798.191,627.187)">
            <path d="M0.297,-0.269L0.297,-0.163C0.297,-0.148 0.294,-0.136 0.289,-0.125C0.284,-0.114 0.277,-0.106 0.269,-0.099C0.26,-0.092 0.251,-0.088 0.241,-0.085C0.231,-0.082 0.221,-0.08 0.212,-0.08C0.193,-0.08 0.18,-0.087 0.172,-0.102C0.164,-0.117 0.16,-0.134 0.16,-0.155C0.16,-0.179 0.166,-0.198 0.178,-0.212C0.19,-0.226 0.21,-0.236 0.238,-0.242C0.247,-0.244 0.256,-0.247 0.267,-0.252C0.278,-0.256 0.288,-0.262 0.297,-0.269ZM0.045,-0.373L0.169,-0.373L0.169,-0.388C0.169,-0.409 0.174,-0.426 0.185,-0.439C0.196,-0.452 0.212,-0.458 0.233,-0.458C0.256,-0.458 0.273,-0.452 0.283,-0.441C0.292,-0.429 0.297,-0.413 0.297,-0.392C0.297,-0.374 0.293,-0.36 0.285,-0.351C0.277,-0.342 0.263,-0.334 0.242,-0.329L0.164,-0.308C0.14,-0.301 0.12,-0.294 0.103,-0.285C0.086,-0.276 0.071,-0.266 0.061,-0.253C0.049,-0.24 0.041,-0.224 0.036,-0.206C0.031,-0.187 0.028,-0.165 0.028,-0.14C0.028,-0.122 0.03,-0.104 0.035,-0.086C0.04,-0.067 0.047,-0.051 0.057,-0.036C0.067,-0.021 0.08,-0.01 0.097,-0.002C0.114,0.007 0.134,0.011 0.158,0.011C0.191,0.011 0.219,0.007 0.24,-0.002C0.261,-0.01 0.279,-0.028 0.295,-0.056L0.297,-0.056C0.299,-0.047 0.301,-0.037 0.304,-0.028C0.306,-0.018 0.309,-0.009 0.314,-0L0.446,-0C0.439,-0.016 0.435,-0.031 0.433,-0.045C0.43,-0.059 0.429,-0.079 0.429,-0.104L0.429,-0.387C0.429,-0.411 0.427,-0.433 0.422,-0.454C0.417,-0.474 0.407,-0.491 0.393,-0.506C0.379,-0.521 0.359,-0.532 0.334,-0.54C0.309,-0.548 0.275,-0.552 0.234,-0.552C0.208,-0.552 0.184,-0.549 0.161,-0.544C0.137,-0.538 0.118,-0.529 0.101,-0.516C0.084,-0.502 0.07,-0.486 0.06,-0.465C0.05,-0.444 0.045,-0.417 0.045,-0.386L0.045,-0.373Z" style="fill:white;fill-rule:nonzero;"/>
        </g>
        <g transform="matrix(220,0,0,220,904.011,627.187)">
            <path d="M0.173,-0.252C0.173,-0.288 0.174,-0.319 0.176,-0.344C0.177,-0.369 0.181,-0.389 0.186,-0.404C0.191,-0.419 0.199,-0.429 0.208,-0.436C0.217,-0.443 0.23,-0.446 0.245,-0.446C0.272,-0.446 0.291,-0.432 0.302,-0.405C0.312,-0.378 0.317,-0.331 0.317,-0.266C0.317,-0.243 0.316,-0.223 0.314,-0.204C0.311,-0.185 0.307,-0.168 0.302,-0.155C0.296,-0.142 0.288,-0.131 0.279,-0.124C0.269,-0.116 0.257,-0.112 0.242,-0.112C0.227,-0.112 0.216,-0.116 0.207,-0.124C0.198,-0.131 0.191,-0.141 0.186,-0.155C0.181,-0.168 0.177,-0.182 0.176,-0.199C0.174,-0.216 0.173,-0.233 0.173,-0.252ZM0.449,-0.538L0.317,-0.538L0.317,-0.478L0.315,-0.478C0.302,-0.506 0.285,-0.525 0.264,-0.536C0.243,-0.547 0.223,-0.552 0.204,-0.552C0.167,-0.552 0.137,-0.544 0.115,-0.527C0.092,-0.51 0.075,-0.489 0.064,-0.463C0.052,-0.436 0.044,-0.407 0.041,-0.374C0.037,-0.341 0.035,-0.309 0.035,-0.278C0.035,-0.18 0.049,-0.11 0.077,-0.069C0.104,-0.027 0.145,-0.006 0.2,-0.006C0.222,-0.006 0.243,-0.012 0.264,-0.024C0.284,-0.036 0.301,-0.052 0.315,-0.072L0.317,-0.072L0.317,-0.001C0.317,0.026 0.311,0.048 0.3,0.066C0.289,0.084 0.269,0.093 0.241,0.093C0.232,0.093 0.224,0.092 0.217,0.089C0.209,0.086 0.202,0.083 0.195,0.078C0.181,0.068 0.174,0.054 0.174,0.037L0.042,0.037C0.042,0.083 0.058,0.119 0.09,0.144C0.121,0.169 0.166,0.181 0.225,0.181C0.306,0.181 0.363,0.164 0.398,0.129C0.432,0.094 0.449,0.042 0.449,-0.027L0.449,-0.538Z" style="fill:white;fill-rule:nonzero;"/>
        </g>
        <g transform="matrix(220,0,0,220,1014.01,627.187)">
            <path d="M0.051,-0.722L0.051,-0.604L0.189,-0.604L0.189,-0.722L0.051,-0.722ZM0.051,-0.538L0.051,-0L0.189,-0L0.189,-0.538L0.051,-0.538Z" style="fill:white;fill-rule:nonzero;"/>
        </g>
        <g transform="matrix(220,0,0,220,1066.81,627.187)">
            <path d="M0.046,-0.538L0.046,-0L0.184,-0L0.184,-0.357C0.184,-0.416 0.208,-0.446 0.257,-0.446C0.278,-0.446 0.293,-0.44 0.302,-0.43C0.311,-0.419 0.316,-0.399 0.316,-0.371L0.316,-0L0.454,-0L0.454,-0.399C0.454,-0.453 0.442,-0.492 0.419,-0.516C0.395,-0.54 0.361,-0.552 0.317,-0.552C0.287,-0.552 0.26,-0.546 0.237,-0.534C0.214,-0.521 0.195,-0.502 0.18,-0.475L0.178,-0.475L0.178,-0.538L0.046,-0.538Z" style="fill:white;fill-rule:nonzero;"/>
        </g>
        <g transform="matrix(220,0,0,220,1176.81,627.187)">
            <path d="M0.305,-0.33L0.164,-0.33L0.164,-0.351C0.164,-0.364 0.165,-0.376 0.168,-0.389C0.17,-0.402 0.174,-0.413 0.179,-0.424C0.184,-0.434 0.192,-0.442 0.201,-0.449C0.21,-0.455 0.221,-0.458 0.235,-0.458C0.249,-0.458 0.261,-0.455 0.27,-0.45C0.279,-0.444 0.286,-0.436 0.291,-0.425C0.296,-0.413 0.299,-0.4 0.301,-0.385C0.303,-0.369 0.304,-0.351 0.305,-0.33ZM0.164,-0.248L0.437,-0.248L0.437,-0.279C0.437,-0.32 0.434,-0.358 0.429,-0.392C0.424,-0.425 0.414,-0.454 0.399,-0.478C0.384,-0.501 0.364,-0.52 0.339,-0.533C0.313,-0.546 0.28,-0.552 0.24,-0.552C0.193,-0.552 0.156,-0.544 0.128,-0.529C0.1,-0.514 0.079,-0.493 0.064,-0.467C0.049,-0.441 0.039,-0.411 0.034,-0.378C0.029,-0.345 0.026,-0.31 0.026,-0.274C0.026,-0.24 0.028,-0.206 0.031,-0.172C0.034,-0.138 0.042,-0.107 0.055,-0.08C0.068,-0.053 0.089,-0.031 0.117,-0.014C0.145,0.003 0.184,0.011 0.234,0.011C0.3,0.011 0.348,-0.005 0.379,-0.038C0.41,-0.071 0.426,-0.118 0.429,-0.181L0.305,-0.181C0.301,-0.147 0.294,-0.122 0.283,-0.105C0.272,-0.088 0.255,-0.08 0.232,-0.08C0.219,-0.08 0.209,-0.084 0.2,-0.091C0.191,-0.097 0.184,-0.107 0.179,-0.119C0.174,-0.13 0.17,-0.143 0.168,-0.159C0.165,-0.173 0.164,-0.189 0.164,-0.205L0.164,-0.248Z" style="fill:white;fill-rule:nonzero;"/>
        </g>
    </g>
    <g>
        <g transform="matrix(1,0,0,1,40,0)">
            <path d="M300,900L300,825" style="fill:none;stroke:white;stroke-width:8px;"/>
        </g>
        <g transform="matrix(1,0,0,1,60,0)">
            <path d="M360,900L360,720" style="fill:none;stroke:white;stroke-width:8px;"/>
        </g>
        <g transform="matrix(1,0,0,0.96,80,36)">
            <path d="M420,900L420,650" style="fill:none;stroke:white;stroke-width:8.16px;"/>
        </g>
        <g transform="matrix(1,0,0,1,100,1.13687e-13)">
            <path d="M480,900L480,690" style="fill:none;stroke:white;stroke-width:8px;"/>
        </g>
        <g transform="matrix(1,0,0,1,120,1.13687e-13)">
            <path d="M540,900L540,750" style="fill:none;stroke:white;stroke-width:8px;"/>
        </g>
        <g transform="matrix(1,0,0,1,140,1.13687e-13)">
            <path d="M600,900L600,820" style="fill:none;stroke:white;stroke-width:8px;"/>
        </g>
        <g transform="matrix(1,0,0,1,160,1.13687e-13)">
            <path d="M660,900L660,860" style="fill:none;stroke:white;stroke-width:8px;"/>
        </g>
        <g transform="matrix(1,0,0,0.941176,180,52)">
            <path d="M720,901L720,884" style="fill:none;stroke:white;stroke-width:8.24px;"/>
        </g>
    </g>
    <g>
        <g>
            <path d="M200,900L1000,900" style="fill:none;"/>
            <path d="M964,882L1000,900L964,918L964,882Z" style="fill:white;"/>
            <path d="M200,900L971.2,900" style="fill:none;stroke:white;stroke-width:12px;"/>
        </g>
        <g>
            <path d="M240,900L240,600" style="fill:none;"/>
            <path d="M222,636L240,600L258,636L222,636Z" style="fill:white;"/>
            <path d="M240,900L240,628.8" style="fill:none;stroke:white;stroke-width:12px;"/>
        </g>
    </g>
</svg>
