<?xml version="1.0" encoding="UTF-8" standalone="no"?>
<!DOCTYPE svg PUBLIC "-//W3C//DTD SVG 1.1//EN" "http://www.w3.org/Graphics/SVG/1.1/DTD/svg11.dtd">
<svg width="100%" height="100%" viewBox="0 0 1200 1200" version="1.1" xmlns="http://www.w3.org/2000/svg" xmlns:xlink="http://www.w3.org/1999/xlink" xml:space="preserve" xmlns:serif="http://www.serif.com/" style="fill-rule:evenodd;clip-rule:evenodd;stroke-linejoin:round;stroke-miterlimit:2;">
    <rect x="0" y="0" width="1200" height="1200" style="fill:none;"/>
    <g transform="matrix(1.02041,0,0,1.47059,120.408,-370.588)">
        <path d="M960,490C960,396.174 850.219,320 715,320L225,320C89.781,320 -20,396.174 -20,490L-20,830C-20,923.826 89.781,1000 225,1000L715,1000C850.219,1000 960,923.826 960,830L960,490Z" style="fill:rgb(191,154,64);"/>
    </g>
    <g transform="matrix(1,0,0,1,354.801,249.431)">
        <g transform="matrix(360,0,0,360,-121.821,479.629)">
            <rect x="0.054" y="-0.156" width="0.132" height="0.156" style="fill:white;fill-rule:nonzero;"/>
        </g>
        <g transform="matrix(360,0,0,360,-35.4205,479.629)">
            <path d="M0.053,-0.714L0.053,-0L0.185,-0L0.185,-0.57L0.187,-0.57L0.314,-0L0.426,-0L0.553,-0.57L0.555,-0.57L0.555,-0L0.687,-0L0.687,-0.714L0.474,-0.714L0.371,-0.21L0.369,-0.21L0.267,-0.714L0.053,-0.714Z" style="fill:white;fill-rule:nonzero;"/>
        </g>
        <g transform="matrix(360,0,0,360,230.979,479.629)">
            <path d="M0.367,-0.502L0.505,-0.502C0.505,-0.575 0.488,-0.63 0.453,-0.67C0.418,-0.708 0.362,-0.728 0.283,-0.728C0.237,-0.728 0.199,-0.72 0.168,-0.705C0.137,-0.69 0.113,-0.667 0.094,-0.637C0.075,-0.606 0.062,-0.568 0.055,-0.523C0.047,-0.478 0.043,-0.425 0.043,-0.365C0.043,-0.303 0.046,-0.249 0.051,-0.202C0.056,-0.155 0.067,-0.115 0.083,-0.083C0.098,-0.051 0.12,-0.027 0.148,-0.012C0.175,0.003 0.211,0.011 0.255,0.011C0.289,0.011 0.318,0.005 0.343,-0.007C0.367,-0.018 0.388,-0.038 0.405,-0.066L0.407,-0.066L0.407,-0L0.513,-0L0.513,-0.385L0.28,-0.385L0.28,-0.279L0.375,-0.279L0.375,-0.206C0.375,-0.187 0.372,-0.17 0.366,-0.156C0.36,-0.141 0.353,-0.129 0.344,-0.12C0.335,-0.111 0.325,-0.104 0.315,-0.099C0.304,-0.094 0.295,-0.092 0.286,-0.092C0.265,-0.092 0.249,-0.098 0.236,-0.112C0.223,-0.125 0.213,-0.143 0.206,-0.168C0.199,-0.192 0.194,-0.221 0.191,-0.256C0.188,-0.291 0.187,-0.329 0.187,-0.372C0.187,-0.461 0.195,-0.525 0.21,-0.564C0.225,-0.603 0.25,-0.622 0.285,-0.622C0.3,-0.622 0.312,-0.618 0.323,-0.611C0.333,-0.603 0.341,-0.593 0.348,-0.582C0.355,-0.57 0.36,-0.557 0.363,-0.543C0.366,-0.529 0.367,-0.515 0.367,-0.502Z" style="fill:white;fill-rule:nonzero;"/>
        </g>
        <g transform="matrix(360,0,0,360,431.139,479.629)">
            <path d="M0.05,-0.714L0.05,-0L0.194,-0L0.194,-0.31L0.434,-0.31L0.434,-0.428L0.194,-0.428L0.194,-0.596L0.449,-0.596L0.449,-0.714L0.05,-0.714Z" style="fill:white;fill-rule:nonzero;"/>
        </g>
    </g>
</svg>
