<?xml version="1.0" encoding="UTF-8" standalone="no"?>
<!DOCTYPE svg PUBLIC "-//W3C//DTD SVG 1.1//EN" "http://www.w3.org/Graphics/SVG/1.1/DTD/svg11.dtd">
<svg width="100%" height="100%" viewBox="0 0 1200 1200" version="1.1" xmlns="http://www.w3.org/2000/svg" xmlns:xlink="http://www.w3.org/1999/xlink" xml:space="preserve" xmlns:serif="http://www.serif.com/" style="fill-rule:evenodd;clip-rule:evenodd;stroke-linejoin:round;stroke-miterlimit:2;">
    <rect x="0" y="0" width="1200" height="1200" style="fill:none;"/>
    <g transform="matrix(1.02041,0,0,1.47059,120.408,-370.588)">
        <path d="M960,490C960,396.174 850.219,320 715,320L225,320C89.781,320 -20,396.174 -20,490L-20,830C-20,923.826 89.781,1000 225,1000L715,1000C850.219,1000 960,923.826 960,830L960,490Z" style="fill:rgb(102,205,170);"/>
    </g>
    <g transform="matrix(1,0,0,1,-187.997,158.944)">
        <path d="M395.577,407.316L395.577,346.556L412.377,346.556C422.457,346.556 429.643,349.17 433.937,354.396C438.23,359.623 440.377,367.276 440.377,377.356C440.377,387.623 437.903,395.183 432.957,400.036C428.01,404.89 421.523,407.316 413.497,407.316L395.577,407.316ZM355.257,316.876L355.257,516.796L395.577,516.796L395.577,436.996L417.137,436.996C426.657,436.996 435.337,435.783 443.177,433.356C451.017,430.93 457.69,427.29 463.197,422.436C468.703,417.583 472.997,411.33 476.077,403.676C479.157,396.023 480.697,387.063 480.697,376.796C480.697,369.33 479.763,362.003 477.897,354.816C476.03,347.63 472.95,341.236 468.657,335.636C464.363,330.036 458.717,325.51 451.717,322.056C444.717,318.603 436.083,316.876 425.817,316.876L355.257,316.876Z" style="fill:white;fill-rule:nonzero;"/>
        <path d="M566.937,424.396L527.457,424.396L527.457,418.516C527.457,414.97 527.783,411.423 528.437,407.876C529.09,404.33 530.163,401.11 531.657,398.216C533.15,395.323 535.157,392.99 537.677,391.216C540.197,389.443 543.417,388.556 547.337,388.556C551.257,388.556 554.477,389.35 556.997,390.936C559.517,392.523 561.477,394.856 562.877,397.936C564.277,401.016 565.257,404.75 565.817,409.136C566.377,413.523 566.75,418.61 566.937,424.396ZM527.457,447.356L603.897,447.356L603.897,438.676C603.897,427.103 603.15,416.603 601.657,407.176C600.163,397.75 597.363,389.723 593.257,383.096C589.15,376.47 583.503,371.336 576.317,367.696C569.13,364.056 559.937,362.236 548.737,362.236C535.67,362.236 525.217,364.383 517.377,368.676C509.537,372.97 503.517,378.756 499.317,386.036C495.117,393.316 492.317,401.623 490.917,410.956C489.517,420.29 488.817,429.996 488.817,440.076C488.817,449.596 489.237,459.116 490.077,468.636C490.917,478.156 493.203,486.743 496.937,494.396C500.67,502.05 506.457,508.21 514.297,512.876C522.137,517.543 533.057,519.876 547.057,519.876C565.537,519.876 579.07,515.303 587.657,506.156C596.243,497.01 600.91,483.663 601.657,466.116L566.937,466.116C565.817,475.636 563.763,482.73 560.777,487.396C557.79,492.063 553.03,494.396 546.497,494.396C542.95,494.396 539.963,493.416 537.537,491.456C535.11,489.496 533.15,486.883 531.657,483.616C530.163,480.35 529.09,476.616 528.437,472.416C527.783,468.216 527.457,463.876 527.457,459.396L527.457,447.356Z" style="fill:white;fill-rule:nonzero;"/>
        <path d="M624.057,366.156L624.057,565.236L662.697,565.236L662.697,502.796L663.257,502.796C667.363,508.77 671.983,513.11 677.117,515.816C682.25,518.523 688.457,519.876 695.737,519.876C711.603,519.876 723.27,513.81 730.737,501.676C738.203,489.543 741.937,469.476 741.937,441.476C741.937,413.476 738.203,393.27 730.737,380.856C723.27,368.443 711.603,362.236 695.737,362.236C687.897,362.236 681.317,363.776 675.997,366.856C670.677,369.936 665.87,375.023 661.577,382.116L661.017,382.116L661.017,366.156L624.057,366.156ZM662.697,441.476C662.697,425.05 663.957,412.683 666.477,404.376C668.997,396.07 674.55,391.916 683.137,391.916C691.537,391.916 696.997,396.07 699.517,404.376C702.037,412.683 703.297,425.05 703.297,441.476C703.297,457.903 702.037,470.27 699.517,478.576C696.997,486.883 691.537,491.036 683.137,491.036C674.55,491.036 668.997,486.883 666.477,478.576C663.957,470.27 662.697,457.903 662.697,441.476Z" style="fill:white;fill-rule:nonzero;"/>
        <path d="M765.177,316.876L765.177,516.796L805.497,516.796L805.497,429.996L872.697,429.996L872.697,396.956L805.497,396.956L805.497,349.916L876.897,349.916L876.897,316.876L765.177,316.876Z" style="fill:white;fill-rule:nonzero;"/>
        <path d="M959.497,424.396L920.017,424.396L920.017,418.516C920.017,414.97 920.343,411.423 920.997,407.876C921.65,404.33 922.723,401.11 924.217,398.216C925.71,395.323 927.717,392.99 930.237,391.216C932.757,389.443 935.977,388.556 939.897,388.556C943.817,388.556 947.037,389.35 949.557,390.936C952.077,392.523 954.037,394.856 955.437,397.936C956.837,401.016 957.817,404.75 958.377,409.136C958.937,413.523 959.31,418.61 959.497,424.396ZM920.017,447.356L996.457,447.356L996.457,438.676C996.457,427.103 995.71,416.603 994.217,407.176C992.723,397.75 989.923,389.723 985.817,383.096C981.71,376.47 976.063,371.336 968.877,367.696C961.69,364.056 952.497,362.236 941.297,362.236C928.23,362.236 917.777,364.383 909.937,368.676C902.097,372.97 896.077,378.756 891.877,386.036C887.677,393.316 884.877,401.623 883.477,410.956C882.077,420.29 881.377,429.996 881.377,440.076C881.377,449.596 881.797,459.116 882.637,468.636C883.477,478.156 885.763,486.743 889.497,494.396C893.23,502.05 899.017,508.21 906.857,512.876C914.697,517.543 925.617,519.876 939.617,519.876C958.097,519.876 971.63,515.303 980.217,506.156C988.803,497.01 993.47,483.663 994.217,466.116L959.497,466.116C958.377,475.636 956.323,482.73 953.337,487.396C950.35,492.063 945.59,494.396 939.057,494.396C935.51,494.396 932.523,493.416 930.097,491.456C927.67,489.496 925.71,486.883 924.217,483.616C922.723,480.35 921.65,476.616 920.997,472.416C920.343,468.216 920.017,463.876 920.017,459.396L920.017,447.356Z" style="fill:white;fill-rule:nonzero;"/>
        <path d="M1086.9,441.476L1086.9,471.156C1086.9,475.263 1086.15,478.81 1084.66,481.796C1083.16,484.783 1081.25,487.21 1078.92,489.076C1076.58,490.943 1074.02,492.296 1071.22,493.136C1068.42,493.976 1065.71,494.396 1063.1,494.396C1057.87,494.396 1054.14,492.343 1051.9,488.236C1049.66,484.13 1048.54,479.183 1048.54,473.396C1048.54,466.676 1050.22,461.356 1053.58,457.436C1056.94,453.516 1062.54,450.716 1070.38,449.036C1072.8,448.476 1075.51,447.59 1078.5,446.376C1081.48,445.163 1084.28,443.53 1086.9,441.476ZM1016.34,412.356L1051.06,412.356L1051.06,408.156C1051.06,402.183 1052.55,397.423 1055.54,393.876C1058.52,390.33 1063,388.556 1068.98,388.556C1075.51,388.556 1080.13,390.19 1082.84,393.456C1085.54,396.723 1086.9,401.25 1086.9,407.036C1086.9,412.076 1085.78,415.903 1083.54,418.516C1081.3,421.13 1077.28,423.183 1071.5,424.676L1049.66,430.556C1042.94,432.423 1037.2,434.57 1032.44,436.996C1027.68,439.423 1023.76,442.456 1020.68,446.096C1017.6,449.736 1015.31,454.123 1013.82,459.256C1012.32,464.39 1011.58,470.503 1011.58,477.596C1011.58,482.636 1012.23,487.723 1013.54,492.856C1014.84,497.99 1016.9,502.61 1019.7,506.716C1022.5,510.823 1026.23,514.043 1030.9,516.376C1035.56,518.71 1041.26,519.876 1047.98,519.876C1057.31,519.876 1064.92,518.71 1070.8,516.376C1076.68,514.043 1081.86,508.956 1086.34,501.116L1086.9,501.116C1087.46,503.73 1088.06,506.39 1088.72,509.096C1089.37,511.803 1090.35,514.37 1091.66,516.796L1128.62,516.796C1126.75,512.316 1125.49,508.116 1124.84,504.196C1124.18,500.276 1123.86,494.77 1123.86,487.676L1123.86,408.436C1123.86,401.716 1123.16,395.51 1121.76,389.816C1120.36,384.123 1117.7,379.223 1113.78,375.116C1109.86,371.01 1104.35,367.836 1097.26,365.596C1090.16,363.356 1080.83,362.236 1069.26,362.236C1061.98,362.236 1055.12,363.03 1048.68,364.616C1042.24,366.203 1036.64,368.816 1031.88,372.456C1027.12,376.096 1023.34,380.856 1020.54,386.736C1017.74,392.616 1016.34,399.943 1016.34,408.716L1016.34,412.356Z" style="fill:white;fill-rule:nonzero;"/>
        <path d="M1159.7,323.036L1159.7,366.156L1140.1,366.156L1140.1,392.476L1159.7,392.476L1159.7,478.716C1159.7,486.37 1160.16,492.716 1161.1,497.756C1162.03,502.796 1163.76,506.856 1166.28,509.936C1168.8,513.016 1172.44,515.07 1177.2,516.096C1181.96,517.123 1188.07,517.636 1195.54,517.636C1200.02,517.636 1204.26,517.496 1208.28,517.216C1212.29,516.936 1216.44,516.796 1220.74,516.796L1220.74,489.916C1219.43,490.103 1218.03,490.243 1216.54,490.336C1215.04,490.43 1213.55,490.476 1212.06,490.476C1206.46,490.476 1202.77,489.216 1201,486.696C1199.22,484.176 1198.34,479.93 1198.34,473.956L1198.34,392.476L1220.74,392.476L1220.74,366.156L1198.34,366.156L1198.34,323.036L1159.7,323.036Z" style="fill:white;fill-rule:nonzero;"/>
    </g>
</svg>
