<?xml version="1.0" encoding="UTF-8" standalone="no"?>
<!DOCTYPE svg PUBLIC "-//W3C//DTD SVG 1.1//EN" "http://www.w3.org/Graphics/SVG/1.1/DTD/svg11.dtd">
<svg width="100%" height="100%" viewBox="0 0 1200 1200" version="1.1" xmlns="http://www.w3.org/2000/svg" xmlns:xlink="http://www.w3.org/1999/xlink" xml:space="preserve" xmlns:serif="http://www.serif.com/" style="fill-rule:evenodd;clip-rule:evenodd;">
    <rect x="0" y="0" width="1200" height="1200" style="fill:none;"/>
    <g transform="matrix(1.02041,0,0,1.47059,120.408,-370.588)">
        <path d="M960,490C960,396.174 850.219,320 715,320L225,320C89.781,320 -20,396.174 -20,490L-20,830C-20,923.826 89.781,1000 225,1000L715,1000C850.219,1000 960,923.826 960,830L960,490Z" style="fill:rgb(138,43,226);"/>
    </g>
    <g transform="matrix(1,0,0,1,-362.492,247.781)">
        <path d="M584.952,355.469L584.952,530.069L632.052,530.069L632.052,355.469L696.252,355.469L696.252,315.869L520.752,315.869L520.752,355.469L584.952,355.469Z" style="fill:white;fill-rule:nonzero;"/>
        <path d="M681.252,422.669C681.852,412.669 684.352,404.369 688.752,397.769C693.152,391.169 698.752,385.869 705.552,381.869C712.352,377.869 720.002,375.019 728.502,373.319C737.002,371.619 745.552,370.769 754.152,370.769C761.952,370.769 769.852,371.319 777.852,372.419C785.852,373.519 793.152,375.669 799.752,378.869C806.352,382.069 811.752,386.519 815.952,392.219C820.152,397.919 822.252,405.469 822.252,414.869L822.252,495.569C822.252,502.569 822.652,509.269 823.452,515.669C824.252,522.069 825.652,526.869 827.652,530.069L784.452,530.069C783.652,527.669 783.002,525.219 782.502,522.719C782.002,520.219 781.652,517.669 781.452,515.069C774.652,522.069 766.652,526.969 757.452,529.769C748.252,532.569 738.852,533.969 729.252,533.969C721.852,533.969 714.952,533.069 708.552,531.269C702.152,529.469 696.552,526.669 691.752,522.869C686.952,519.069 683.202,514.269 680.502,508.469C677.802,502.669 676.452,495.769 676.452,487.769C676.452,478.969 678.002,471.719 681.102,466.019C684.202,460.319 688.202,455.769 693.102,452.369C698.002,448.969 703.602,446.419 709.902,444.719C716.202,443.019 722.552,441.669 728.952,440.669C735.352,439.669 741.652,438.869 747.852,438.269C754.052,437.669 759.552,436.769 764.352,435.569C769.152,434.369 772.952,432.619 775.752,430.319C778.552,428.019 779.852,424.669 779.652,420.269C779.652,415.669 778.902,412.019 777.402,409.319C775.902,406.619 773.902,404.519 771.402,403.019C768.902,401.519 766.002,400.519 762.702,400.019C759.402,399.519 755.852,399.269 752.052,399.269C743.652,399.269 737.052,401.069 732.252,404.669C727.452,408.269 724.652,414.269 723.852,422.669L681.252,422.669ZM779.652,454.169C777.852,455.769 775.602,457.019 772.902,457.919C770.202,458.819 767.302,459.569 764.202,460.169C761.102,460.769 757.852,461.269 754.452,461.669C751.052,462.069 747.652,462.569 744.252,463.169C741.052,463.769 737.902,464.569 734.802,465.569C731.702,466.569 729.002,467.919 726.702,469.619C724.402,471.319 722.552,473.469 721.152,476.069C719.752,478.669 719.052,481.969 719.052,485.969C719.052,489.769 719.752,492.969 721.152,495.569C722.552,498.169 724.452,500.219 726.852,501.719C729.252,503.219 732.052,504.269 735.252,504.869C738.452,505.469 741.752,505.769 745.152,505.769C753.552,505.769 760.052,504.369 764.652,501.569C769.252,498.769 772.652,495.419 774.852,491.519C777.052,487.619 778.402,483.669 778.902,479.669C779.402,475.669 779.652,472.469 779.652,470.069L779.652,454.169Z" style="fill:white;fill-rule:nonzero;"/>
        <path d="M855.252,374.969L855.252,530.069L897.852,530.069L897.852,460.169C897.852,453.169 898.552,446.669 899.952,440.669C901.352,434.669 903.702,429.419 907.002,424.919C910.302,420.419 914.652,416.869 920.052,414.269C925.452,411.669 932.052,410.369 939.852,410.369C942.452,410.369 945.152,410.519 947.952,410.819C950.752,411.119 953.152,411.469 955.152,411.869L955.152,372.269C951.752,371.269 948.652,370.769 945.852,370.769C940.452,370.769 935.252,371.569 930.252,373.169C925.252,374.769 920.552,377.019 916.152,379.919C911.752,382.819 907.852,386.319 904.452,390.419C901.052,394.519 898.352,398.969 896.352,403.769L895.752,403.769L895.752,374.969L855.252,374.969Z" style="fill:white;fill-rule:nonzero;"/>
        <path d="M1035.85,493.469C1029.25,493.469 1023.75,492.069 1019.35,489.269C1014.95,486.469 1011.4,482.869 1008.7,478.469C1006,474.069 1004.1,469.119 1003,463.619C1001.9,458.119 1001.35,452.569 1001.35,446.969C1001.35,441.169 1002,435.619 1003.3,430.319C1004.6,425.019 1006.7,420.319 1009.6,416.219C1012.5,412.119 1016.1,408.869 1020.4,406.469C1024.7,404.069 1029.85,402.869 1035.85,402.869C1042.85,402.869 1048.65,404.169 1053.25,406.769C1057.85,409.369 1061.55,412.869 1064.35,417.269C1067.15,421.669 1069.15,426.719 1070.35,432.419C1071.55,438.119 1072.15,444.169 1072.15,450.569C1072.15,456.169 1071.4,461.519 1069.9,466.619C1068.4,471.719 1066.15,476.269 1063.15,480.269C1060.15,484.269 1056.35,487.469 1051.75,489.869C1047.15,492.269 1041.85,493.469 1035.85,493.469ZM1112.65,520.169L1112.65,374.969L1072.15,374.969L1072.15,395.669L1071.55,395.669C1066.35,386.669 1059.9,380.269 1052.2,376.469C1044.5,372.669 1035.55,370.769 1025.35,370.769C1014.55,370.769 1005,372.869 996.702,377.069C988.402,381.269 981.452,386.919 975.852,394.019C970.252,401.119 966.002,409.319 963.102,418.619C960.202,427.919 958.752,437.569 958.752,447.569C958.752,458.169 960.002,468.219 962.502,477.719C965.002,487.219 968.952,495.519 974.352,502.619C979.752,509.719 986.652,515.319 995.052,519.419C1003.45,523.519 1013.45,525.569 1025.05,525.569C1034.45,525.569 1043.4,523.619 1051.9,519.719C1060.4,515.819 1066.95,509.769 1071.55,501.569L1072.15,501.569L1072.15,521.969C1072.35,532.969 1069.7,542.069 1064.2,549.269C1058.7,556.469 1049.95,560.069 1037.95,560.069C1030.35,560.069 1023.65,558.519 1017.85,555.419C1012.05,552.319 1008.15,546.769 1006.15,538.769L963.852,538.769C964.452,547.569 966.902,555.119 971.202,561.419C975.502,567.719 980.902,572.869 987.402,576.869C993.902,580.869 1001.1,583.819 1009,585.719C1016.9,587.619 1024.65,588.569 1032.25,588.569C1050.05,588.569 1064.25,586.169 1074.85,581.369C1085.45,576.569 1093.55,570.719 1099.15,563.819C1104.75,556.919 1108.4,549.469 1110.1,541.469C1111.8,533.469 1112.65,526.369 1112.65,520.169Z" style="fill:white;fill-rule:nonzero;"/>
        <path d="M1251.25,435.869L1181.95,435.869C1182.15,432.869 1182.8,429.469 1183.9,425.669C1185,421.869 1186.9,418.269 1189.6,414.869C1192.3,411.469 1195.9,408.619 1200.4,406.319C1204.9,404.019 1210.55,402.869 1217.35,402.869C1227.75,402.869 1235.5,405.669 1240.6,411.269C1245.7,416.869 1249.25,425.069 1251.25,435.869ZM1181.95,462.869L1293.85,462.869C1294.65,450.869 1293.65,439.369 1290.85,428.369C1288.05,417.369 1283.5,407.569 1277.2,398.969C1270.9,390.369 1262.85,383.519 1253.05,378.419C1243.25,373.319 1231.75,370.769 1218.55,370.769C1206.75,370.769 1196,372.869 1186.3,377.069C1176.6,381.269 1168.25,387.019 1161.25,394.319C1154.25,401.619 1148.85,410.269 1145.05,420.269C1141.25,430.269 1139.35,441.069 1139.35,452.669C1139.35,464.669 1141.2,475.669 1144.9,485.669C1148.6,495.669 1153.85,504.269 1160.65,511.469C1167.45,518.669 1175.75,524.219 1185.55,528.119C1195.35,532.019 1206.35,533.969 1218.55,533.969C1236.15,533.969 1251.15,529.969 1263.55,521.969C1275.95,513.969 1285.15,500.669 1291.15,482.069L1253.65,482.069C1252.25,486.869 1248.45,491.419 1242.25,495.719C1236.05,500.019 1228.65,502.169 1220.05,502.169C1208.05,502.169 1198.85,499.069 1192.45,492.869C1186.05,486.669 1182.55,476.669 1181.95,462.869Z" style="fill:white;fill-rule:nonzero;"/>
        <path d="M1373.05,374.969L1373.05,328.469L1330.45,328.469L1330.45,374.969L1304.65,374.969L1304.65,403.469L1330.45,403.469L1330.45,494.969C1330.45,502.769 1331.75,509.069 1334.35,513.869C1336.95,518.669 1340.5,522.369 1345,524.969C1349.5,527.569 1354.7,529.319 1360.6,530.219C1366.5,531.119 1372.75,531.569 1379.35,531.569C1383.55,531.569 1387.85,531.469 1392.25,531.269C1396.65,531.069 1400.65,530.669 1404.25,530.069L1404.25,497.069C1402.25,497.469 1400.15,497.769 1397.95,497.969C1395.75,498.169 1393.45,498.269 1391.05,498.269C1383.85,498.269 1379.05,497.069 1376.65,494.669C1374.25,492.269 1373.05,487.469 1373.05,480.269L1373.05,403.469L1404.25,403.469L1404.25,374.969L1373.05,374.969Z" style="fill:white;fill-rule:nonzero;"/>
    </g>
    <g transform="matrix(-7.46896,0,0,7.46896,925.57,262.855)">
        <g transform="matrix(0.45862,0.61914,-0.61914,0.45862,185.241,-603.107)">
            <g transform="matrix(0.70754,0.22532,-0.22532,0.70754,282.79,61.87)">
                <path d="M567.83,651.89L560.051,650.249L554.622,656.358L553.779,648.453L546.291,645.177L553.549,641.932L554.35,633.798L559.679,639.698L567.662,637.947L563.698,644.838L567.83,651.89L567.83,651.89Z" style="fill:none;fill-rule:nonzero;stroke:white;stroke-width:2.39px;"/>
            </g>
            <path d="M531.97,647.86C532.583,647.634 532.584,647.6 533.03,647.606L534.039,686.628C534.039,686.711 533.972,686.778 533.889,686.778L530.76,686.778C530.677,686.778 530.61,686.711 530.61,686.628C531.188,681.478 531.991,648.141 531.97,647.86L531.97,647.86L531.97,647.86Z" style="fill:white;fill-rule:nonzero;"/>
        </g>
        <g transform="matrix(0.45862,0.61914,-0.61914,0.45862,187.67,-605.18)">
            <path d="M522.57,651.84L516.581,654.312L517.532,656.118L522.57,651.84L522.57,651.84Z" style="fill:rgb(255,215,0);fill-rule:nonzero;"/>
        </g>
        <g transform="matrix(0.45862,0.61914,-0.61914,0.45862,187.67,-605.18)">
            <path d="M522.07,638.17L518.061,633.081L516.582,634.487L522.07,638.17L522.07,638.17Z" style="fill:rgb(255,215,0);fill-rule:nonzero;"/>
        </g>
        <g transform="matrix(0.45862,0.61914,-0.61914,0.45862,187.67,-605.18)">
            <path d="M542.53,637.76L548.519,635.289L547.568,633.482L542.53,637.76L542.53,637.76Z" style="fill:rgb(255,215,0);fill-rule:nonzero;"/>
        </g>
        <g transform="matrix(0.45862,0.61914,-0.61914,0.45862,187.67,-605.18)">
            <path d="M543.04,651.43L547.049,656.519L548.528,655.113L543.04,651.43L543.04,651.43Z" style="fill:rgb(255,215,0);fill-rule:nonzero;"/>
        </g>
        <g transform="matrix(0.45862,0.61914,-0.61914,0.45862,187.67,-605.18)">
            <path d="M532.37,633.34L533.209,626.916L531.17,626.841L532.37,633.34L532.37,633.34Z" style="fill:rgb(255,215,0);fill-rule:nonzero;"/>
        </g>
    </g>
    <g>
        <g transform="matrix(0.95,0,0,1,10,0)">
            <path d="M200,500L600,500" style="fill:none;stroke:white;stroke-width:6.15px;stroke-linecap:round;stroke-linejoin:round;stroke-miterlimit:1.5;"/>
        </g>
        <g transform="matrix(1,0,0,0.266083,180,366.958)">
            <path d="M240,500C299.841,299.533 300.09,299.59 360,500" style="fill:none;stroke:white;stroke-width:5.47px;stroke-linecap:round;stroke-linejoin:round;stroke-miterlimit:1.5;"/>
        </g>
        <g transform="matrix(0.583333,0,0,1.06433,140,-32.1667)">
            <path d="M240,500C299.841,299.533 300.09,299.59 360,500" style="fill:none;stroke:white;stroke-width:4.66px;stroke-linecap:round;stroke-linejoin:round;stroke-miterlimit:1.5;"/>
        </g>
    </g>
    <g transform="matrix(0.321975,0.086273,-0.12941,0.482963,503.365,105.222)">
        <path d="M270,518.154L190,608.154L220,608.154L200,678.154L280,598.154L250,598.154L270,518.154Z" style="fill:rgb(255,0,0);fill-rule:nonzero;"/>
    </g>
    <g transform="matrix(0.785816,0,0,0.785816,914.216,417.821)">
        <path d="M50.997,131C63.735,94.081 87.106,33.185 109.623,10.37C123.458,-3.65 140.511,1.251 145.303,4.815C159.168,15.125 164.274,29.988 171.788,42.553C149.932,37.269 157.059,27.089 133.439,29.024L133.12,29.71C133.062,29.549 133.003,29.387 132.944,29.226L147.227,160.46L147.363,160.487C151.817,161.367 156.285,162.182 160.77,162.891C162.705,163.197 164.644,163.484 166.585,163.747C168.193,163.966 169.803,164.171 171.417,164.347C174.124,164.642 176.84,164.865 179.562,164.959C181.581,165.029 183.605,165.03 185.622,164.906C186.922,164.826 188.219,164.693 189.503,164.476C190.724,164.269 191.934,163.985 193.104,163.576C193.53,163.426 193.95,163.261 194.363,163.079C194.72,162.922 195.07,162.753 195.42,162.581C195.564,162.51 195.708,162.439 195.853,162.371C195.947,162.326 196.042,162.282 196.138,162.24C196.448,162.105 196.776,161.989 197.117,161.976C197.189,161.973 197.26,161.975 197.332,161.982C197.444,161.992 197.556,162.013 197.664,162.044C197.698,162.054 197.731,162.064 197.763,162.075C197.775,162.079 197.786,162.083 197.797,162.087C197.802,162.089 197.808,162.091 197.814,162.093C197.854,162.101 197.894,162.105 197.934,162.112C198.013,162.125 198.092,162.138 198.171,162.152C198.435,162.197 198.698,162.247 198.961,162.301C199.368,162.385 199.772,162.48 200.173,162.591C200.483,162.676 200.791,162.771 201.094,162.877C201.327,162.958 201.558,163.047 201.785,163.144C201.957,163.217 202.127,163.296 202.294,163.38C202.418,163.442 202.54,163.508 202.66,163.577C202.754,163.632 202.847,163.688 202.937,163.747C203.491,164.106 204,164.568 204.308,165.16C204.358,165.257 204.402,165.356 204.44,165.458C204.491,165.595 204.531,165.736 204.559,165.88C204.6,166.094 204.615,166.313 204.605,166.53C204.59,166.861 204.519,167.188 204.412,167.502C204.248,167.981 204.001,168.429 203.714,168.844C203.297,169.448 202.792,169.991 202.237,170.469L202.23,170.475C202.357,170.429 202.484,170.383 202.613,170.336C196.148,186.141 186.279,191.777 160.021,192.889C139.039,190.847 117.961,190.694 96.927,191.48C72.812,192.173 48.289,194.082 24.584,187.76C17.365,185.642 9.583,183.437 4.063,177.158C1.489,174.364 0.754,169.992 1.649,166.136L1.647,166.133C1.426,165.683 1.254,165.21 1.145,164.721C1.076,164.414 1.031,164.101 1.011,163.787C0.996,163.565 0.994,163.341 1.004,163.119C1.011,162.95 1.024,162.782 1.044,162.615C1.189,161.392 1.661,160.228 2.27,159.165C2.379,158.974 2.493,158.787 2.611,158.601C2.764,158.361 2.924,158.126 3.09,157.894C3.307,157.59 3.535,157.292 3.77,157.001C4.073,156.626 4.39,156.261 4.715,155.906C5.423,155.132 6.178,154.402 6.974,153.718C7.547,153.226 8.14,152.758 8.751,152.315C9.167,152.013 9.591,151.722 10.022,151.442C13.105,149.443 16.533,148.022 20.052,146.991C20.649,146.816 21.25,146.652 21.854,146.499C22.611,146.306 23.373,146.129 24.137,145.966C25.175,145.745 26.217,145.551 27.264,145.38C30.017,144.928 32.795,144.631 35.578,144.437C39.194,144.184 42.82,144.106 46.445,144.128L46.567,144.129C46.866,143.223 47.177,142.286 47.498,141.321L50.513,131.171C50.673,131.113 50.835,131.056 50.997,131Z" style="fill:white;"/>
    </g>
</svg>
