<?xml version="1.0" encoding="UTF-8" standalone="no"?>
<!DOCTYPE svg PUBLIC "-//W3C//DTD SVG 1.1//EN" "http://www.w3.org/Graphics/SVG/1.1/DTD/svg11.dtd">
<svg width="100%" height="100%" viewBox="0 0 1200 1200" version="1.1" xmlns="http://www.w3.org/2000/svg" xmlns:xlink="http://www.w3.org/1999/xlink" xml:space="preserve" xmlns:serif="http://www.serif.com/" style="fill-rule:evenodd;clip-rule:evenodd;stroke-linejoin:round;stroke-miterlimit:2;">
    <rect x="0" y="0" width="1200" height="1200" style="fill:none;"/>
    <g transform="matrix(1.02041,0,0,1.47059,120.408,-370.588)">
        <path d="M960,490C960,396.174 850.219,320 715,320L225,320C89.781,320 -20,396.174 -20,490L-20,830C-20,923.826 89.781,1000 225,1000L715,1000C850.219,1000 960,923.826 960,830L960,490Z" style="fill:rgb(250,128,114);"/>
    </g>
    <g transform="matrix(1,0,0,1,-335.561,150.116)">
        <rect x="570.161" y="522.244" width="47.52" height="56.16" style="fill:white;fill-rule:nonzero;"/>
        <path d="M655.121,321.364L655.121,578.404L706.961,578.404L706.961,469.684L734.681,469.684C745.481,469.684 753.161,472.564 757.721,478.324C762.281,484.084 764.801,492.004 765.281,502.084L766.721,551.404C766.961,556.444 767.441,561.304 768.161,565.984C768.881,570.664 770.561,574.804 773.201,578.404L829.361,578.404L829.361,576.244C824.561,573.604 821.441,568.684 820.001,561.484C819.041,554.284 818.321,543.844 817.841,530.164C817.601,523.204 817.361,516.904 817.121,511.264C816.881,505.624 816.521,500.404 816.041,495.604C814.601,481.204 810.881,470.764 804.881,464.284C798.881,457.804 789.401,453.604 776.441,451.684L776.441,450.964C791.081,447.844 801.881,440.824 808.841,429.904C815.801,418.984 819.281,404.884 819.281,387.604C819.281,365.284 813.281,348.664 801.281,337.744C789.281,326.824 772.481,321.364 750.881,321.364L655.121,321.364ZM706.961,433.684L706.961,359.524L731.441,359.524C755.441,359.524 767.441,371.404 767.441,395.164C767.441,409.084 764.081,418.984 757.361,424.864C750.641,430.744 741.041,433.684 728.561,433.684L706.961,433.684Z" style="fill:white;fill-rule:nonzero;"/>
        <path d="M962.561,481.564L937.721,366.004L937.001,366.004L912.161,481.564L962.561,481.564ZM969.401,321.364L1037.44,578.404L983.441,578.404L971.561,524.044L903.161,524.044L891.281,578.404L837.281,578.404L905.321,321.364L969.401,321.364Z" style="fill:white;fill-rule:nonzero;"/>
        <path d="M1033.12,321.364L1079.92,578.404L1137.88,578.404L1166.68,391.924L1167.4,391.924L1196.2,578.404L1254.16,578.404L1300.96,321.364L1251.28,321.364L1222.84,511.444L1222.12,511.444L1191.88,321.364L1142.2,321.364L1111.96,511.444L1111.24,511.444L1082.8,321.364L1033.12,321.364Z" style="fill:white;fill-rule:nonzero;"/>
    </g>
</svg>
